<?xml version="1.0" encoding="UTF-8" standalone="no"?>
<svg width="256.6mm" height="180.4mm"
 viewBox="0 0 5132 3608"
 xmlns="http://www.w3.org/2000/svg" xmlns:xlink="http://www.w3.org/1999/xlink"  version="1.2" baseProfile="tiny">
<title>Proteus Design Suite SVG export</title>
<desc>Created by Proteus Design Suite</desc>
<defs>
</defs>
<g fill="none" stroke="black" stroke-width="1" fill-rule="evenodd" stroke-linecap="square" stroke-linejoin="bevel" >

<g fill="#e0e0d0" fill-opacity="1" stroke="none" transform="matrix(1,0,0,1,0,0)"
font-family="SimSun" font-size="63.5" font-weight="400" font-style="normal" 
>
<path vector-effect="non-scaling-stroke" fill-rule="evenodd" d="M0,0 L5132,0 L5132,3608 L0,3608 L0,0"/>
</g>

<g fill="none" stroke="#004000" stroke-opacity="1" stroke-width="8" stroke-linecap="round" stroke-linejoin="bevel" transform="matrix(1,0,0,1,0,0)"
font-family="SimSun" font-size="63.5" font-weight="400" font-style="normal" 
>
<path vector-effect="none" fill-rule="evenodd" d="M3023,1042 L1601,1042 L1601,1499 L2007,1499"/>
</g>

<g fill="none" stroke="#004000" stroke-opacity="1" stroke-width="8" stroke-linecap="round" stroke-linejoin="bevel" transform="matrix(1,0,0,1,0,0)"
font-family="SimSun" font-size="63.5" font-weight="400" font-style="normal" 
>
<path vector-effect="none" fill-rule="evenodd" d="M3023,1093 L3023,1753 L2007,1753 L2007,1601"/>
</g>

<g fill="none" stroke="#004000" stroke-opacity="1" stroke-width="8" stroke-linecap="round" stroke-linejoin="bevel" transform="matrix(1,0,0,1,0,0)"
font-family="SimSun" font-size="63.5" font-weight="400" font-style="normal" 
>
<path vector-effect="none" fill-rule="evenodd" d="M2007,1499"/>
</g>

<g fill="none" stroke="#004000" stroke-opacity="1" stroke-width="8" stroke-linecap="round" stroke-linejoin="bevel" transform="matrix(1,0,0,1,0,0)"
font-family="SimSun" font-size="63.5" font-weight="400" font-style="normal" 
>
<path vector-effect="none" fill-rule="evenodd" d="M2007,1601"/>
</g>

<g fill="none" stroke="#004000" stroke-opacity="1" stroke-width="8" stroke-linecap="round" stroke-linejoin="bevel" transform="matrix(1,0,0,1,0,0)"
font-family="SimSun" font-size="63.5" font-weight="400" font-style="normal" 
>
<path vector-effect="none" fill-rule="evenodd" d="M3023,1144 L2972,1144 L2972,1550 L2515,1550"/>
</g>

<g fill="#c8c8aa" fill-opacity="1" stroke="#800000" stroke-opacity="1" stroke-width="8" stroke-linecap="round" stroke-linejoin="bevel" transform="matrix(1,0,0,1,0,0)"
font-family="SimSun" font-size="63.5" font-weight="400" font-style="normal" 
>
<path vector-effect="none" fill-rule="evenodd" d="M3125,991 L4039,991 L4039,1550 L3125,1550 L3125,991"/>
</g>

<g fill="#000000" fill-opacity="1" stroke="#800000" stroke-opacity="1" stroke-width="5" stroke-linecap="round" stroke-linejoin="bevel" transform="matrix(1,0,0,1,0,0)"
font-family="SimSun" font-size="63.5" font-weight="400" font-style="normal" 
>
<path vector-effect="none" fill-rule="evenodd" d="M3323,1037 L3841,1037 L3841,1499 L3323,1499 L3323,1037"/>
</g>

<g fill="none" stroke="#808080" stroke-opacity="1" stroke-width="1" stroke-linecap="round" stroke-linejoin="bevel" transform="matrix(1,0,0,1,0,0)"
font-family="SimSun" font-size="63.5" font-weight="400" font-style="normal" 
>
<polyline fill="none" vector-effect="none" points="3328,1093 3836,1093 " />
</g>

<g fill="none" stroke="#808080" stroke-opacity="1" stroke-width="1" stroke-linecap="round" stroke-linejoin="bevel" transform="matrix(1,0,0,1,0,0)"
font-family="SimSun" font-size="63.5" font-weight="400" font-style="normal" 
>
<polyline fill="none" vector-effect="none" points="3328,1144 3836,1144 " />
</g>

<g fill="none" stroke="#808080" stroke-opacity="1" stroke-width="1" stroke-linecap="round" stroke-linejoin="bevel" transform="matrix(1,0,0,1,0,0)"
font-family="SimSun" font-size="63.5" font-weight="400" font-style="normal" 
>
<polyline fill="none" vector-effect="none" points="3328,1194 3836,1194 " />
</g>

<g fill="none" stroke="#808080" stroke-opacity="1" stroke-width="1" stroke-linecap="round" stroke-linejoin="bevel" transform="matrix(1,0,0,1,0,0)"
font-family="SimSun" font-size="63.5" font-weight="400" font-style="normal" 
>
<polyline fill="none" vector-effect="none" points="3328,1245 3836,1245 " />
</g>

<g fill="none" stroke="#808080" stroke-opacity="1" stroke-width="1" stroke-linecap="round" stroke-linejoin="bevel" transform="matrix(1,0,0,1,0,0)"
font-family="SimSun" font-size="63.5" font-weight="400" font-style="normal" 
>
<polyline fill="none" vector-effect="none" points="3328,1296 3836,1296 " />
</g>

<g fill="none" stroke="#808080" stroke-opacity="1" stroke-width="1" stroke-linecap="round" stroke-linejoin="bevel" transform="matrix(1,0,0,1,0,0)"
font-family="SimSun" font-size="63.5" font-weight="400" font-style="normal" 
>
<polyline fill="none" vector-effect="none" points="3328,1347 3836,1347 " />
</g>

<g fill="none" stroke="#808080" stroke-opacity="1" stroke-width="1" stroke-linecap="round" stroke-linejoin="bevel" transform="matrix(1,0,0,1,0,0)"
font-family="SimSun" font-size="63.5" font-weight="400" font-style="normal" 
>
<polyline fill="none" vector-effect="none" points="3328,1398 3836,1398 " />
</g>

<g fill="none" stroke="#808080" stroke-opacity="1" stroke-dasharray="10,20" stroke-dashoffset="0" stroke-width="1" stroke-linecap="round" stroke-linejoin="bevel" transform="matrix(1,0,0,1,0,0)"
font-family="SimSun" font-size="63.5" font-weight="400" font-style="normal" 
>
</g>

<g fill="none" stroke="#e0e0d0" stroke-opacity="1" stroke-width="1" stroke-linecap="square" stroke-linejoin="bevel" transform="matrix(1,0,0,1,0,0)"
font-family="SimSun" font-size="63.5" font-weight="400" font-style="normal" 
>
<path vector-effect="non-scaling-stroke" fill-rule="evenodd" d="M3379,1042 L3379,1499"/>
</g>

<g fill="none" stroke="#808080" stroke-opacity="1" stroke-dasharray="10,20" stroke-dashoffset="0" stroke-width="1" stroke-linecap="round" stroke-linejoin="bevel" transform="matrix(1,0,0,1,0,0)"
font-family="SimSun" font-size="63.5" font-weight="400" font-style="normal" 
>
<path vector-effect="non-scaling-stroke" fill-rule="evenodd" d="M3379,1042 L3379,1499"/>
</g>

<g fill="none" stroke="#808080" stroke-opacity="1" stroke-width="1" stroke-linecap="round" stroke-linejoin="bevel" transform="matrix(1,0,0,1,0,0)"
font-family="SimSun" font-size="63.5" font-weight="400" font-style="normal" 
>
<polyline fill="none" vector-effect="none" points="3328,1448 3836,1448 " />
</g>

<g fill="none" stroke="#808080" stroke-opacity="1" stroke-dasharray="10,20" stroke-dashoffset="0" stroke-width="1" stroke-linecap="round" stroke-linejoin="bevel" transform="matrix(1,0,0,1,0,0)"
font-family="SimSun" font-size="63.5" font-weight="400" font-style="normal" 
>
</g>

<g fill="none" stroke="#e0e0d0" stroke-opacity="1" stroke-width="1" stroke-linecap="square" stroke-linejoin="bevel" transform="matrix(1,0,0,1,0,0)"
font-family="SimSun" font-size="63.5" font-weight="400" font-style="normal" 
>
<path vector-effect="non-scaling-stroke" fill-rule="evenodd" d="M3430,1042 L3430,1499"/>
</g>

<g fill="none" stroke="#808080" stroke-opacity="1" stroke-dasharray="10,20" stroke-dashoffset="0" stroke-width="1" stroke-linecap="round" stroke-linejoin="bevel" transform="matrix(1,0,0,1,0,0)"
font-family="SimSun" font-size="63.5" font-weight="400" font-style="normal" 
>
<path vector-effect="non-scaling-stroke" fill-rule="evenodd" d="M3430,1042 L3430,1499"/>
</g>

<g fill="none" stroke="#808080" stroke-opacity="1" stroke-dasharray="10,20" stroke-dashoffset="0" stroke-width="1" stroke-linecap="round" stroke-linejoin="bevel" transform="matrix(1,0,0,1,0,0)"
font-family="SimSun" font-size="63.5" font-weight="400" font-style="normal" 
>
</g>

<g fill="none" stroke="#e0e0d0" stroke-opacity="1" stroke-width="1" stroke-linecap="square" stroke-linejoin="bevel" transform="matrix(1,0,0,1,0,0)"
font-family="SimSun" font-size="63.5" font-weight="400" font-style="normal" 
>
<path vector-effect="non-scaling-stroke" fill-rule="evenodd" d="M3480,1042 L3480,1499"/>
</g>

<g fill="none" stroke="#808080" stroke-opacity="1" stroke-dasharray="10,20" stroke-dashoffset="0" stroke-width="1" stroke-linecap="round" stroke-linejoin="bevel" transform="matrix(1,0,0,1,0,0)"
font-family="SimSun" font-size="63.5" font-weight="400" font-style="normal" 
>
<path vector-effect="non-scaling-stroke" fill-rule="evenodd" d="M3480,1042 L3480,1499"/>
</g>

<g fill="none" stroke="#808080" stroke-opacity="1" stroke-dasharray="10,20" stroke-dashoffset="0" stroke-width="1" stroke-linecap="round" stroke-linejoin="bevel" transform="matrix(1,0,0,1,0,0)"
font-family="SimSun" font-size="63.5" font-weight="400" font-style="normal" 
>
</g>

<g fill="none" stroke="#e0e0d0" stroke-opacity="1" stroke-width="1" stroke-linecap="square" stroke-linejoin="bevel" transform="matrix(1,0,0,1,0,0)"
font-family="SimSun" font-size="63.5" font-weight="400" font-style="normal" 
>
<path vector-effect="non-scaling-stroke" fill-rule="evenodd" d="M3531,1042 L3531,1499"/>
</g>

<g fill="none" stroke="#808080" stroke-opacity="1" stroke-dasharray="10,20" stroke-dashoffset="0" stroke-width="1" stroke-linecap="round" stroke-linejoin="bevel" transform="matrix(1,0,0,1,0,0)"
font-family="SimSun" font-size="63.5" font-weight="400" font-style="normal" 
>
<path vector-effect="non-scaling-stroke" fill-rule="evenodd" d="M3531,1042 L3531,1499"/>
</g>

<g fill="none" stroke="#808080" stroke-opacity="1" stroke-dasharray="10,20" stroke-dashoffset="0" stroke-width="1" stroke-linecap="round" stroke-linejoin="bevel" transform="matrix(1,0,0,1,0,0)"
font-family="SimSun" font-size="63.5" font-weight="400" font-style="normal" 
>
</g>

<g fill="none" stroke="#e0e0d0" stroke-opacity="1" stroke-width="1" stroke-linecap="square" stroke-linejoin="bevel" transform="matrix(1,0,0,1,0,0)"
font-family="SimSun" font-size="63.5" font-weight="400" font-style="normal" 
>
<path vector-effect="non-scaling-stroke" fill-rule="evenodd" d="M3582,1042 L3582,1499"/>
</g>

<g fill="none" stroke="#808080" stroke-opacity="1" stroke-dasharray="10,20" stroke-dashoffset="0" stroke-width="1" stroke-linecap="round" stroke-linejoin="bevel" transform="matrix(1,0,0,1,0,0)"
font-family="SimSun" font-size="63.5" font-weight="400" font-style="normal" 
>
<path vector-effect="non-scaling-stroke" fill-rule="evenodd" d="M3582,1042 L3582,1499"/>
</g>

<g fill="none" stroke="#808080" stroke-opacity="1" stroke-dasharray="10,20" stroke-dashoffset="0" stroke-width="1" stroke-linecap="round" stroke-linejoin="bevel" transform="matrix(1,0,0,1,0,0)"
font-family="SimSun" font-size="63.5" font-weight="400" font-style="normal" 
>
</g>

<g fill="none" stroke="#e0e0d0" stroke-opacity="1" stroke-width="1" stroke-linecap="square" stroke-linejoin="bevel" transform="matrix(1,0,0,1,0,0)"
font-family="SimSun" font-size="63.5" font-weight="400" font-style="normal" 
>
<path vector-effect="non-scaling-stroke" fill-rule="evenodd" d="M3633,1042 L3633,1499"/>
</g>

<g fill="none" stroke="#808080" stroke-opacity="1" stroke-dasharray="10,20" stroke-dashoffset="0" stroke-width="1" stroke-linecap="round" stroke-linejoin="bevel" transform="matrix(1,0,0,1,0,0)"
font-family="SimSun" font-size="63.5" font-weight="400" font-style="normal" 
>
<path vector-effect="non-scaling-stroke" fill-rule="evenodd" d="M3633,1042 L3633,1499"/>
</g>

<g fill="none" stroke="#808080" stroke-opacity="1" stroke-dasharray="10,20" stroke-dashoffset="0" stroke-width="1" stroke-linecap="round" stroke-linejoin="bevel" transform="matrix(1,0,0,1,0,0)"
font-family="SimSun" font-size="63.5" font-weight="400" font-style="normal" 
>
</g>

<g fill="none" stroke="#e0e0d0" stroke-opacity="1" stroke-width="1" stroke-linecap="square" stroke-linejoin="bevel" transform="matrix(1,0,0,1,0,0)"
font-family="SimSun" font-size="63.5" font-weight="400" font-style="normal" 
>
<path vector-effect="non-scaling-stroke" fill-rule="evenodd" d="M3684,1042 L3684,1499"/>
</g>

<g fill="none" stroke="#808080" stroke-opacity="1" stroke-dasharray="10,20" stroke-dashoffset="0" stroke-width="1" stroke-linecap="round" stroke-linejoin="bevel" transform="matrix(1,0,0,1,0,0)"
font-family="SimSun" font-size="63.5" font-weight="400" font-style="normal" 
>
<path vector-effect="non-scaling-stroke" fill-rule="evenodd" d="M3684,1042 L3684,1499"/>
</g>

<g fill="none" stroke="#808080" stroke-opacity="1" stroke-dasharray="10,20" stroke-dashoffset="0" stroke-width="1" stroke-linecap="round" stroke-linejoin="bevel" transform="matrix(1,0,0,1,0,0)"
font-family="SimSun" font-size="63.5" font-weight="400" font-style="normal" 
>
</g>

<g fill="none" stroke="#e0e0d0" stroke-opacity="1" stroke-width="1" stroke-linecap="square" stroke-linejoin="bevel" transform="matrix(1,0,0,1,0,0)"
font-family="SimSun" font-size="63.5" font-weight="400" font-style="normal" 
>
<path vector-effect="non-scaling-stroke" fill-rule="evenodd" d="M3734,1042 L3734,1499"/>
</g>

<g fill="none" stroke="#808080" stroke-opacity="1" stroke-dasharray="10,20" stroke-dashoffset="0" stroke-width="1" stroke-linecap="round" stroke-linejoin="bevel" transform="matrix(1,0,0,1,0,0)"
font-family="SimSun" font-size="63.5" font-weight="400" font-style="normal" 
>
<path vector-effect="non-scaling-stroke" fill-rule="evenodd" d="M3734,1042 L3734,1499"/>
</g>

<g fill="none" stroke="#808080" stroke-opacity="1" stroke-dasharray="10,20" stroke-dashoffset="0" stroke-width="1" stroke-linecap="round" stroke-linejoin="bevel" transform="matrix(1,0,0,1,0,0)"
font-family="SimSun" font-size="63.5" font-weight="400" font-style="normal" 
>
</g>

<g fill="none" stroke="#e0e0d0" stroke-opacity="1" stroke-width="1" stroke-linecap="square" stroke-linejoin="bevel" transform="matrix(1,0,0,1,0,0)"
font-family="SimSun" font-size="63.5" font-weight="400" font-style="normal" 
>
<path vector-effect="non-scaling-stroke" fill-rule="evenodd" d="M3785,1042 L3785,1499"/>
</g>

<g fill="none" stroke="#808080" stroke-opacity="1" stroke-dasharray="10,20" stroke-dashoffset="0" stroke-width="1" stroke-linecap="round" stroke-linejoin="bevel" transform="matrix(1,0,0,1,0,0)"
font-family="SimSun" font-size="63.5" font-weight="400" font-style="normal" 
>
<path vector-effect="non-scaling-stroke" fill-rule="evenodd" d="M3785,1042 L3785,1499"/>
</g>

<g fill="none" stroke="#800000" stroke-opacity="1" stroke-width="8" stroke-linecap="round" stroke-linejoin="bevel" transform="matrix(1,0,0,1,0,0)"
font-family="SimSun" font-size="63.5" font-weight="400" font-style="normal" 
>
<polyline fill="none" vector-effect="none" points="3023,1042 3125,1042 " />
</g>

<g fill="none" stroke="#000000" stroke-opacity="1" stroke-width="1" stroke-linecap="square" stroke-linejoin="bevel" transform="matrix(1,0,0,1,0,0)"
font-family="Arial" font-size="41.656" font-weight="400" font-style="normal" 
>
<text fill="#000000" fill-opacity="1" stroke="none" xml:space="preserve" x="3150" y="1058" font-family="Arial" font-size="41.656" font-weight="400" font-style="normal" 
 >A0</text>
</g>

<g fill="none" stroke="#800000" stroke-opacity="1" stroke-width="8" stroke-linecap="round" stroke-linejoin="bevel" transform="matrix(1,0,0,1,0,0)"
font-family="SimSun" font-size="63.5" font-weight="400" font-style="normal" 
>
</g>

<g fill="none" stroke="#800000" stroke-opacity="1" stroke-width="8" stroke-linecap="round" stroke-linejoin="bevel" transform="matrix(1,0,0,1,0,0)"
font-family="SimSun" font-size="63.5" font-weight="400" font-style="normal" 
>
<polyline fill="none" vector-effect="none" points="3023,1093 3125,1093 " />
</g>

<g fill="none" stroke="#000000" stroke-opacity="1" stroke-width="1" stroke-linecap="square" stroke-linejoin="bevel" transform="matrix(1,0,0,1,0,0)"
font-family="Arial" font-size="41.656" font-weight="400" font-style="normal" 
>
<text fill="#000000" fill-opacity="1" stroke="none" xml:space="preserve" x="3150" y="1109" font-family="Arial" font-size="41.656" font-weight="400" font-style="normal" 
 >A1</text>
</g>

<g fill="none" stroke="#800000" stroke-opacity="1" stroke-width="8" stroke-linecap="round" stroke-linejoin="bevel" transform="matrix(1,0,0,1,0,0)"
font-family="SimSun" font-size="63.5" font-weight="400" font-style="normal" 
>
</g>

<g fill="none" stroke="#800000" stroke-opacity="1" stroke-width="8" stroke-linecap="round" stroke-linejoin="bevel" transform="matrix(1,0,0,1,0,0)"
font-family="SimSun" font-size="63.5" font-weight="400" font-style="normal" 
>
<polyline fill="none" vector-effect="none" points="3023,1144 3125,1144 " />
</g>

<g fill="none" stroke="#000000" stroke-opacity="1" stroke-width="1" stroke-linecap="square" stroke-linejoin="bevel" transform="matrix(1,0,0,1,0,0)"
font-family="Arial" font-size="41.656" font-weight="400" font-style="normal" 
>
<text fill="#000000" fill-opacity="1" stroke="none" xml:space="preserve" x="3150" y="1160" font-family="Arial" font-size="41.656" font-weight="400" font-style="normal" 
 >A2</text>
</g>

<g fill="none" stroke="#800000" stroke-opacity="1" stroke-width="8" stroke-linecap="round" stroke-linejoin="bevel" transform="matrix(1,0,0,1,0,0)"
font-family="SimSun" font-size="63.5" font-weight="400" font-style="normal" 
>
</g>

<g fill="none" stroke="#800000" stroke-opacity="1" stroke-width="8" stroke-linecap="round" stroke-linejoin="bevel" transform="matrix(1,0,0,1,0,0)"
font-family="SimSun" font-size="63.5" font-weight="400" font-style="normal" 
>
<polyline fill="none" vector-effect="none" points="3023,1194 3125,1194 " />
</g>

<g fill="none" stroke="#000000" stroke-opacity="1" stroke-width="1" stroke-linecap="square" stroke-linejoin="bevel" transform="matrix(1,0,0,1,0,0)"
font-family="Arial" font-size="41.656" font-weight="400" font-style="normal" 
>
<text fill="#000000" fill-opacity="1" stroke="none" xml:space="preserve" x="3150" y="1210" font-family="Arial" font-size="41.656" font-weight="400" font-style="normal" 
 >A3</text>
</g>

<g fill="none" stroke="#800000" stroke-opacity="1" stroke-width="8" stroke-linecap="round" stroke-linejoin="bevel" transform="matrix(1,0,0,1,0,0)"
font-family="SimSun" font-size="63.5" font-weight="400" font-style="normal" 
>
</g>

<g fill="none" stroke="#800000" stroke-opacity="1" stroke-width="8" stroke-linecap="round" stroke-linejoin="bevel" transform="matrix(1,0,0,1,0,0)"
font-family="SimSun" font-size="63.5" font-weight="400" font-style="normal" 
>
<polyline fill="none" vector-effect="none" points="3023,1245 3125,1245 " />
</g>

<g fill="none" stroke="#000000" stroke-opacity="1" stroke-width="1" stroke-linecap="square" stroke-linejoin="bevel" transform="matrix(1,0,0,1,0,0)"
font-family="Arial" font-size="41.656" font-weight="400" font-style="normal" 
>
<text fill="#000000" fill-opacity="1" stroke="none" xml:space="preserve" x="3150" y="1261" font-family="Arial" font-size="41.656" font-weight="400" font-style="normal" 
 >A4</text>
</g>

<g fill="none" stroke="#800000" stroke-opacity="1" stroke-width="8" stroke-linecap="round" stroke-linejoin="bevel" transform="matrix(1,0,0,1,0,0)"
font-family="SimSun" font-size="63.5" font-weight="400" font-style="normal" 
>
</g>

<g fill="none" stroke="#800000" stroke-opacity="1" stroke-width="8" stroke-linecap="round" stroke-linejoin="bevel" transform="matrix(1,0,0,1,0,0)"
font-family="SimSun" font-size="63.5" font-weight="400" font-style="normal" 
>
<polyline fill="none" vector-effect="none" points="3023,1296 3125,1296 " />
</g>

<g fill="none" stroke="#000000" stroke-opacity="1" stroke-width="1" stroke-linecap="square" stroke-linejoin="bevel" transform="matrix(1,0,0,1,0,0)"
font-family="Arial" font-size="41.656" font-weight="400" font-style="normal" 
>
<text fill="#000000" fill-opacity="1" stroke="none" xml:space="preserve" x="3150" y="1312" font-family="Arial" font-size="41.656" font-weight="400" font-style="normal" 
 >A5</text>
</g>

<g fill="none" stroke="#800000" stroke-opacity="1" stroke-width="8" stroke-linecap="round" stroke-linejoin="bevel" transform="matrix(1,0,0,1,0,0)"
font-family="SimSun" font-size="63.5" font-weight="400" font-style="normal" 
>
</g>

<g fill="none" stroke="#800000" stroke-opacity="1" stroke-width="8" stroke-linecap="round" stroke-linejoin="bevel" transform="matrix(1,0,0,1,0,0)"
font-family="SimSun" font-size="63.5" font-weight="400" font-style="normal" 
>
<polyline fill="none" vector-effect="none" points="3023,1347 3125,1347 " />
</g>

<g fill="none" stroke="#000000" stroke-opacity="1" stroke-width="1" stroke-linecap="square" stroke-linejoin="bevel" transform="matrix(1,0,0,1,0,0)"
font-family="Arial" font-size="41.656" font-weight="400" font-style="normal" 
>
<text fill="#000000" fill-opacity="1" stroke="none" xml:space="preserve" x="3150" y="1363" font-family="Arial" font-size="41.656" font-weight="400" font-style="normal" 
 >A6</text>
</g>

<g fill="none" stroke="#800000" stroke-opacity="1" stroke-width="8" stroke-linecap="round" stroke-linejoin="bevel" transform="matrix(1,0,0,1,0,0)"
font-family="SimSun" font-size="63.5" font-weight="400" font-style="normal" 
>
</g>

<g fill="none" stroke="#800000" stroke-opacity="1" stroke-width="8" stroke-linecap="round" stroke-linejoin="bevel" transform="matrix(1,0,0,1,0,0)"
font-family="SimSun" font-size="63.5" font-weight="400" font-style="normal" 
>
<polyline fill="none" vector-effect="none" points="3023,1398 3125,1398 " />
</g>

<g fill="none" stroke="#000000" stroke-opacity="1" stroke-width="1" stroke-linecap="square" stroke-linejoin="bevel" transform="matrix(1,0,0,1,0,0)"
font-family="Arial" font-size="41.656" font-weight="400" font-style="normal" 
>
<text fill="#000000" fill-opacity="1" stroke="none" xml:space="preserve" x="3150" y="1414" font-family="Arial" font-size="41.656" font-weight="400" font-style="normal" 
 >A7</text>
</g>

<g fill="none" stroke="#800000" stroke-opacity="1" stroke-width="8" stroke-linecap="round" stroke-linejoin="bevel" transform="matrix(1,0,0,1,0,0)"
font-family="SimSun" font-size="63.5" font-weight="400" font-style="normal" 
>
</g>

<g fill="none" stroke="#800000" stroke-opacity="1" stroke-width="8" stroke-linecap="round" stroke-linejoin="bevel" transform="matrix(1,0,0,1,0,0)"
font-family="SimSun" font-size="63.5" font-weight="400" font-style="normal" 
>
<polyline fill="none" vector-effect="none" points="4141,1042 4039,1042 " />
</g>

<g fill="none" stroke="#000000" stroke-opacity="1" stroke-width="1" stroke-linecap="square" stroke-linejoin="bevel" transform="matrix(1,0,0,1,0,0)"
font-family="Arial" font-size="41.656" font-weight="400" font-style="normal" 
>
<text fill="#000000" fill-opacity="1" stroke="none" xml:space="preserve" x="3962" y="1058" font-family="Arial" font-size="41.656" font-weight="400" font-style="normal" 
 >A8</text>
</g>

<g fill="none" stroke="#800000" stroke-opacity="1" stroke-width="8" stroke-linecap="round" stroke-linejoin="bevel" transform="matrix(1,0,0,1,0,0)"
font-family="SimSun" font-size="63.5" font-weight="400" font-style="normal" 
>
</g>

<g fill="none" stroke="#800000" stroke-opacity="1" stroke-width="8" stroke-linecap="round" stroke-linejoin="bevel" transform="matrix(1,0,0,1,0,0)"
font-family="SimSun" font-size="63.5" font-weight="400" font-style="normal" 
>
<polyline fill="none" vector-effect="none" points="4141,1093 4039,1093 " />
</g>

<g fill="none" stroke="#000000" stroke-opacity="1" stroke-width="1" stroke-linecap="square" stroke-linejoin="bevel" transform="matrix(1,0,0,1,0,0)"
font-family="Arial" font-size="41.656" font-weight="400" font-style="normal" 
>
<text fill="#000000" fill-opacity="1" stroke="none" xml:space="preserve" x="3962" y="1109" font-family="Arial" font-size="41.656" font-weight="400" font-style="normal" 
 >A9</text>
</g>

<g fill="none" stroke="#800000" stroke-opacity="1" stroke-width="8" stroke-linecap="round" stroke-linejoin="bevel" transform="matrix(1,0,0,1,0,0)"
font-family="SimSun" font-size="63.5" font-weight="400" font-style="normal" 
>
</g>

<g fill="none" stroke="#800000" stroke-opacity="1" stroke-width="8" stroke-linecap="round" stroke-linejoin="bevel" transform="matrix(1,0,0,1,0,0)"
font-family="SimSun" font-size="63.5" font-weight="400" font-style="normal" 
>
<polyline fill="none" vector-effect="none" points="4141,1144 4039,1144 " />
</g>

<g fill="none" stroke="#000000" stroke-opacity="1" stroke-width="1" stroke-linecap="square" stroke-linejoin="bevel" transform="matrix(1,0,0,1,0,0)"
font-family="Arial" font-size="41.656" font-weight="400" font-style="normal" 
>
<text fill="#000000" fill-opacity="1" stroke="none" xml:space="preserve" x="3939" y="1160" font-family="Arial" font-size="41.656" font-weight="400" font-style="normal" 
 >A10</text>
</g>

<g fill="none" stroke="#800000" stroke-opacity="1" stroke-width="8" stroke-linecap="round" stroke-linejoin="bevel" transform="matrix(1,0,0,1,0,0)"
font-family="SimSun" font-size="63.5" font-weight="400" font-style="normal" 
>
</g>

<g fill="none" stroke="#800000" stroke-opacity="1" stroke-width="8" stroke-linecap="round" stroke-linejoin="bevel" transform="matrix(1,0,0,1,0,0)"
font-family="SimSun" font-size="63.5" font-weight="400" font-style="normal" 
>
<polyline fill="none" vector-effect="none" points="4141,1194 4039,1194 " />
</g>

<g fill="none" stroke="#000000" stroke-opacity="1" stroke-width="1" stroke-linecap="square" stroke-linejoin="bevel" transform="matrix(1,0,0,1,0,0)"
font-family="Arial" font-size="41.656" font-weight="400" font-style="normal" 
>
<text fill="#000000" fill-opacity="1" stroke="none" xml:space="preserve" x="3942" y="1210" font-family="Arial" font-size="41.656" font-weight="400" font-style="normal" 
 >A11</text>
</g>

<g fill="none" stroke="#800000" stroke-opacity="1" stroke-width="8" stroke-linecap="round" stroke-linejoin="bevel" transform="matrix(1,0,0,1,0,0)"
font-family="SimSun" font-size="63.5" font-weight="400" font-style="normal" 
>
</g>

<g fill="none" stroke="#800000" stroke-opacity="1" stroke-width="8" stroke-linecap="round" stroke-linejoin="bevel" transform="matrix(1,0,0,1,0,0)"
font-family="SimSun" font-size="63.5" font-weight="400" font-style="normal" 
>
<polyline fill="none" vector-effect="none" points="4141,1245 4039,1245 " />
</g>

<g fill="none" stroke="#000000" stroke-opacity="1" stroke-width="1" stroke-linecap="square" stroke-linejoin="bevel" transform="matrix(1,0,0,1,0,0)"
font-family="Arial" font-size="41.656" font-weight="400" font-style="normal" 
>
<text fill="#000000" fill-opacity="1" stroke="none" xml:space="preserve" x="3939" y="1261" font-family="Arial" font-size="41.656" font-weight="400" font-style="normal" 
 >A12</text>
</g>

<g fill="none" stroke="#800000" stroke-opacity="1" stroke-width="8" stroke-linecap="round" stroke-linejoin="bevel" transform="matrix(1,0,0,1,0,0)"
font-family="SimSun" font-size="63.5" font-weight="400" font-style="normal" 
>
</g>

<g fill="none" stroke="#800000" stroke-opacity="1" stroke-width="8" stroke-linecap="round" stroke-linejoin="bevel" transform="matrix(1,0,0,1,0,0)"
font-family="SimSun" font-size="63.5" font-weight="400" font-style="normal" 
>
<polyline fill="none" vector-effect="none" points="4141,1296 4039,1296 " />
</g>

<g fill="none" stroke="#000000" stroke-opacity="1" stroke-width="1" stroke-linecap="square" stroke-linejoin="bevel" transform="matrix(1,0,0,1,0,0)"
font-family="Arial" font-size="41.656" font-weight="400" font-style="normal" 
>
<text fill="#000000" fill-opacity="1" stroke="none" xml:space="preserve" x="3939" y="1312" font-family="Arial" font-size="41.656" font-weight="400" font-style="normal" 
 >A13</text>
</g>

<g fill="none" stroke="#800000" stroke-opacity="1" stroke-width="8" stroke-linecap="round" stroke-linejoin="bevel" transform="matrix(1,0,0,1,0,0)"
font-family="SimSun" font-size="63.5" font-weight="400" font-style="normal" 
>
</g>

<g fill="none" stroke="#800000" stroke-opacity="1" stroke-width="8" stroke-linecap="round" stroke-linejoin="bevel" transform="matrix(1,0,0,1,0,0)"
font-family="SimSun" font-size="63.5" font-weight="400" font-style="normal" 
>
<polyline fill="none" vector-effect="none" points="4141,1347 4039,1347 " />
</g>

<g fill="none" stroke="#000000" stroke-opacity="1" stroke-width="1" stroke-linecap="square" stroke-linejoin="bevel" transform="matrix(1,0,0,1,0,0)"
font-family="Arial" font-size="41.656" font-weight="400" font-style="normal" 
>
<text fill="#000000" fill-opacity="1" stroke="none" xml:space="preserve" x="3939" y="1363" font-family="Arial" font-size="41.656" font-weight="400" font-style="normal" 
 >A14</text>
</g>

<g fill="none" stroke="#800000" stroke-opacity="1" stroke-width="8" stroke-linecap="round" stroke-linejoin="bevel" transform="matrix(1,0,0,1,0,0)"
font-family="SimSun" font-size="63.5" font-weight="400" font-style="normal" 
>
</g>

<g fill="none" stroke="#800000" stroke-opacity="1" stroke-width="8" stroke-linecap="round" stroke-linejoin="bevel" transform="matrix(1,0,0,1,0,0)"
font-family="SimSun" font-size="63.5" font-weight="400" font-style="normal" 
>
<polyline fill="none" vector-effect="none" points="4141,1398 4039,1398 " />
</g>

<g fill="none" stroke="#000000" stroke-opacity="1" stroke-width="1" stroke-linecap="square" stroke-linejoin="bevel" transform="matrix(1,0,0,1,0,0)"
font-family="Arial" font-size="41.656" font-weight="400" font-style="normal" 
>
<text fill="#000000" fill-opacity="1" stroke="none" xml:space="preserve" x="3939" y="1414" font-family="Arial" font-size="41.656" font-weight="400" font-style="normal" 
 >A15</text>
</g>

<g fill="none" stroke="#800000" stroke-opacity="1" stroke-width="8" stroke-linecap="round" stroke-linejoin="bevel" transform="matrix(1,0,0,1,0,0)"
font-family="SimSun" font-size="63.5" font-weight="400" font-style="normal" 
>
</g>

<g fill="none" stroke="#0000c0" stroke-opacity="1" stroke-width="30" stroke-linecap="round" stroke-linejoin="bevel" transform="matrix(1,0,0,1,0,0)"
font-family="SimSun" font-size="63.5" font-weight="400" font-style="normal" 
>
<polyline fill="none" vector-effect="none" points="3125,1448 3023,1448 " />
</g>

<g fill="none" stroke="#000000" stroke-opacity="1" stroke-width="1" stroke-linecap="square" stroke-linejoin="bevel" transform="matrix(1,0,0,1,0,0)"
font-family="Arial" font-size="41.656" font-weight="400" font-style="normal" 
>
<text fill="#000000" fill-opacity="1" stroke="none" xml:space="preserve" x="3150" y="1464" font-family="Arial" font-size="41.656" font-weight="400" font-style="normal" 
 >B0[0..7]</text>
</g>

<g fill="none" stroke="#0000c0" stroke-opacity="1" stroke-width="30" stroke-linecap="round" stroke-linejoin="bevel" transform="matrix(1,0,0,1,0,0)"
font-family="SimSun" font-size="63.5" font-weight="400" font-style="normal" 
>
</g>

<g fill="none" stroke="#0000c0" stroke-opacity="1" stroke-width="30" stroke-linecap="round" stroke-linejoin="bevel" transform="matrix(1,0,0,1,0,0)"
font-family="SimSun" font-size="63.5" font-weight="400" font-style="normal" 
>
<polyline fill="none" vector-effect="none" points="3125,1499 3023,1499 " />
</g>

<g fill="none" stroke="#000000" stroke-opacity="1" stroke-width="1" stroke-linecap="square" stroke-linejoin="bevel" transform="matrix(1,0,0,1,0,0)"
font-family="Arial" font-size="41.656" font-weight="400" font-style="normal" 
>
<text fill="#000000" fill-opacity="1" stroke="none" xml:space="preserve" x="3150" y="1515" font-family="Arial" font-size="41.656" font-weight="400" font-style="normal" 
 >B1[0..7]</text>
</g>

<g fill="none" stroke="#0000c0" stroke-opacity="1" stroke-width="30" stroke-linecap="round" stroke-linejoin="bevel" transform="matrix(1,0,0,1,0,0)"
font-family="SimSun" font-size="63.5" font-weight="400" font-style="normal" 
>
</g>

<g fill="none" stroke="#0000c0" stroke-opacity="1" stroke-width="30" stroke-linecap="round" stroke-linejoin="bevel" transform="matrix(1,0,0,1,0,0)"
font-family="SimSun" font-size="63.5" font-weight="400" font-style="normal" 
>
<polyline fill="none" vector-effect="none" points="4039,1448 4141,1448 " />
</g>

<g fill="none" stroke="#000000" stroke-opacity="1" stroke-width="1" stroke-linecap="square" stroke-linejoin="bevel" transform="matrix(1,0,0,1,0,0)"
font-family="Arial" font-size="41.656" font-weight="400" font-style="normal" 
>
<text fill="#000000" fill-opacity="1" stroke="none" xml:space="preserve" x="3868" y="1464" font-family="Arial" font-size="41.656" font-weight="400" font-style="normal" 
 >B2[0..7]</text>
</g>

<g fill="none" stroke="#0000c0" stroke-opacity="1" stroke-width="30" stroke-linecap="round" stroke-linejoin="bevel" transform="matrix(1,0,0,1,0,0)"
font-family="SimSun" font-size="63.5" font-weight="400" font-style="normal" 
>
</g>

<g fill="none" stroke="#0000c0" stroke-opacity="1" stroke-width="30" stroke-linecap="round" stroke-linejoin="bevel" transform="matrix(1,0,0,1,0,0)"
font-family="SimSun" font-size="63.5" font-weight="400" font-style="normal" 
>
<polyline fill="none" vector-effect="none" points="4039,1499 4141,1499 " />
</g>

<g fill="none" stroke="#000000" stroke-opacity="1" stroke-width="1" stroke-linecap="square" stroke-linejoin="bevel" transform="matrix(1,0,0,1,0,0)"
font-family="Arial" font-size="41.656" font-weight="400" font-style="normal" 
>
<text fill="#000000" fill-opacity="1" stroke="none" xml:space="preserve" x="3868" y="1515" font-family="Arial" font-size="41.656" font-weight="400" font-style="normal" 
 >B3[0..7]</text>
</g>

<g fill="none" stroke="#0000c0" stroke-opacity="1" stroke-width="30" stroke-linecap="round" stroke-linejoin="bevel" transform="matrix(1,0,0,1,0,0)"
font-family="SimSun" font-size="63.5" font-weight="400" font-style="normal" 
>
</g>

<g fill="none" stroke="#0000c0" stroke-opacity="1" stroke-width="4" stroke-linecap="round" stroke-linejoin="bevel" transform="matrix(1,0,0,1,0,0)"
font-family="SimSun" font-size="63.5" font-weight="400" font-style="normal" 
>
<path vector-effect="none" fill-rule="evenodd" d="M1982,1474 L1931,1448 L1956,1423 L1982,1474"/>
</g>

<g fill="none" stroke="#0000c0" stroke-opacity="1" stroke-width="4" stroke-linecap="round" stroke-linejoin="bevel" transform="matrix(1,0,0,1,0,0)"
font-family="SimSun" font-size="63.5" font-weight="400" font-style="normal" 
>
<polyline fill="none" vector-effect="none" points="2007,1499 1982,1474 " />
</g>

<g fill="none" stroke="#0000c0" stroke-opacity="1" stroke-width="4" stroke-linecap="round" stroke-linejoin="bevel" transform="matrix(1,0,0,1,0,0)"
font-family="SimSun" font-size="63.5" font-weight="400" font-style="normal" 
>
<polyline fill="none" vector-effect="none" points="2007,1484 2028,1484 " />
</g>

<g fill="none" stroke="#0000c0" stroke-opacity="1" stroke-width="4" stroke-linecap="round" stroke-linejoin="bevel" transform="matrix(1,0,0,1,0,0)"
font-family="SimSun" font-size="63.5" font-weight="400" font-style="normal" 
>
<polyline fill="none" vector-effect="none" points="2028,1484 2028,1428 " />
</g>

<g fill="none" stroke="#0000c0" stroke-opacity="1" stroke-width="4" stroke-linecap="round" stroke-linejoin="bevel" transform="matrix(1,0,0,1,0,0)"
font-family="SimSun" font-size="63.5" font-weight="400" font-style="normal" 
>
<polyline fill="none" vector-effect="none" points="2028,1428 2048,1428 " />
</g>

<g fill="none" stroke="#0000c0" stroke-opacity="1" stroke-width="4" stroke-linecap="round" stroke-linejoin="bevel" transform="matrix(1,0,0,1,0,0)"
font-family="SimSun" font-size="63.5" font-weight="400" font-style="normal" 
>
<polyline fill="none" vector-effect="none" points="2048,1428 2048,1484 " />
</g>

<g fill="none" stroke="#0000c0" stroke-opacity="1" stroke-width="4" stroke-linecap="round" stroke-linejoin="bevel" transform="matrix(1,0,0,1,0,0)"
font-family="SimSun" font-size="63.5" font-weight="400" font-style="normal" 
>
<polyline fill="none" vector-effect="none" points="2048,1484 2068,1484 " />
</g>

<g fill="none" stroke="#0000c0" stroke-opacity="1" stroke-width="4" stroke-linecap="round" stroke-linejoin="bevel" transform="matrix(1,0,0,1,0,0)"
font-family="SimSun" font-size="63.5" font-weight="400" font-style="normal" 
>
<polyline fill="none" vector-effect="none" points="2068,1484 2068,1428 " />
</g>

<g fill="none" stroke="#0000c0" stroke-opacity="1" stroke-width="4" stroke-linecap="round" stroke-linejoin="bevel" transform="matrix(1,0,0,1,0,0)"
font-family="SimSun" font-size="63.5" font-weight="400" font-style="normal" 
>
<polyline fill="none" vector-effect="none" points="2068,1428 2088,1428 " />
</g>

<g fill="none" stroke="#0000c0" stroke-opacity="1" stroke-width="4" stroke-linecap="round" stroke-linejoin="bevel" transform="matrix(1,0,0,1,0,0)"
font-family="SimSun" font-size="63.5" font-weight="400" font-style="normal" 
>
<polyline fill="none" vector-effect="none" points="2088,1428 2088,1484 " />
</g>

<g fill="none" stroke="#0000c0" stroke-opacity="1" stroke-width="4" stroke-linecap="round" stroke-linejoin="bevel" transform="matrix(1,0,0,1,0,0)"
font-family="SimSun" font-size="63.5" font-weight="400" font-style="normal" 
>
<polyline fill="none" vector-effect="none" points="2088,1484 2104,1484 " />
</g>

<g fill="none" stroke="#0000c0" stroke-opacity="1" stroke-width="1" stroke-linecap="square" stroke-linejoin="bevel" transform="matrix(1,0,0,1,0,0)"
font-family="Arial" font-size="41.656" font-weight="400" font-style="normal" 
>
<text fill="#0000c0" fill-opacity="1" stroke="none" xml:space="preserve" x="1831" y="1439" font-family="Arial" font-size="41.656" font-weight="400" font-style="normal" 
 >(A0)</text>
</g>

<g fill="none" stroke="#0000c0" stroke-opacity="1" stroke-width="4" stroke-linecap="round" stroke-linejoin="bevel" transform="matrix(1,0,0,1,0,0)"
font-family="SimSun" font-size="63.5" font-weight="400" font-style="normal" 
>
</g>

<g fill="none" stroke="#0000c0" stroke-opacity="1" stroke-width="4" stroke-linecap="round" stroke-linejoin="bevel" transform="matrix(1,0,0,1,0,0)"
font-family="SimSun" font-size="63.5" font-weight="400" font-style="normal" 
>
<path vector-effect="none" fill-rule="evenodd" d="M1982,1575 L1931,1550 L1956,1525 L1982,1575"/>
</g>

<g fill="none" stroke="#0000c0" stroke-opacity="1" stroke-width="4" stroke-linecap="round" stroke-linejoin="bevel" transform="matrix(1,0,0,1,0,0)"
font-family="SimSun" font-size="63.5" font-weight="400" font-style="normal" 
>
<polyline fill="none" vector-effect="none" points="2007,1601 1982,1575 " />
</g>

<g fill="none" stroke="#0000c0" stroke-opacity="1" stroke-width="4" stroke-linecap="round" stroke-linejoin="bevel" transform="matrix(1,0,0,1,0,0)"
font-family="SimSun" font-size="63.5" font-weight="400" font-style="normal" 
>
<polyline fill="none" vector-effect="none" points="2007,1586 2028,1586 " />
</g>

<g fill="none" stroke="#0000c0" stroke-opacity="1" stroke-width="4" stroke-linecap="round" stroke-linejoin="bevel" transform="matrix(1,0,0,1,0,0)"
font-family="SimSun" font-size="63.5" font-weight="400" font-style="normal" 
>
<polyline fill="none" vector-effect="none" points="2028,1586 2028,1530 " />
</g>

<g fill="none" stroke="#0000c0" stroke-opacity="1" stroke-width="4" stroke-linecap="round" stroke-linejoin="bevel" transform="matrix(1,0,0,1,0,0)"
font-family="SimSun" font-size="63.5" font-weight="400" font-style="normal" 
>
<polyline fill="none" vector-effect="none" points="2028,1530 2048,1530 " />
</g>

<g fill="none" stroke="#0000c0" stroke-opacity="1" stroke-width="4" stroke-linecap="round" stroke-linejoin="bevel" transform="matrix(1,0,0,1,0,0)"
font-family="SimSun" font-size="63.5" font-weight="400" font-style="normal" 
>
<polyline fill="none" vector-effect="none" points="2048,1530 2048,1586 " />
</g>

<g fill="none" stroke="#0000c0" stroke-opacity="1" stroke-width="4" stroke-linecap="round" stroke-linejoin="bevel" transform="matrix(1,0,0,1,0,0)"
font-family="SimSun" font-size="63.5" font-weight="400" font-style="normal" 
>
<polyline fill="none" vector-effect="none" points="2048,1586 2068,1586 " />
</g>

<g fill="none" stroke="#0000c0" stroke-opacity="1" stroke-width="4" stroke-linecap="round" stroke-linejoin="bevel" transform="matrix(1,0,0,1,0,0)"
font-family="SimSun" font-size="63.5" font-weight="400" font-style="normal" 
>
<polyline fill="none" vector-effect="none" points="2068,1586 2068,1530 " />
</g>

<g fill="none" stroke="#0000c0" stroke-opacity="1" stroke-width="4" stroke-linecap="round" stroke-linejoin="bevel" transform="matrix(1,0,0,1,0,0)"
font-family="SimSun" font-size="63.5" font-weight="400" font-style="normal" 
>
<polyline fill="none" vector-effect="none" points="2068,1530 2088,1530 " />
</g>

<g fill="none" stroke="#0000c0" stroke-opacity="1" stroke-width="4" stroke-linecap="round" stroke-linejoin="bevel" transform="matrix(1,0,0,1,0,0)"
font-family="SimSun" font-size="63.5" font-weight="400" font-style="normal" 
>
<polyline fill="none" vector-effect="none" points="2088,1530 2088,1586 " />
</g>

<g fill="none" stroke="#0000c0" stroke-opacity="1" stroke-width="4" stroke-linecap="round" stroke-linejoin="bevel" transform="matrix(1,0,0,1,0,0)"
font-family="SimSun" font-size="63.5" font-weight="400" font-style="normal" 
>
<polyline fill="none" vector-effect="none" points="2088,1586 2104,1586 " />
</g>

<g fill="none" stroke="#0000c0" stroke-opacity="1" stroke-width="1" stroke-linecap="square" stroke-linejoin="bevel" transform="matrix(1,0,0,1,0,0)"
font-family="Arial" font-size="41.656" font-weight="400" font-style="normal" 
>
<text fill="#0000c0" fill-opacity="1" stroke="none" xml:space="preserve" x="1831" y="1541" font-family="Arial" font-size="41.656" font-weight="400" font-style="normal" 
 >(A1)</text>
</g>

<g fill="none" stroke="#0000c0" stroke-opacity="1" stroke-width="4" stroke-linecap="round" stroke-linejoin="bevel" transform="matrix(1,0,0,1,0,0)"
font-family="SimSun" font-size="63.5" font-weight="400" font-style="normal" 
>
</g>

<g fill="#c8c8aa" fill-opacity="1" stroke="#800000" stroke-opacity="1" stroke-width="8" stroke-linecap="round" stroke-linejoin="bevel" transform="matrix(1,0,0,1,0,0)"
font-family="SimSun" font-size="63.5" font-weight="400" font-style="normal" 
>
<path vector-effect="none" fill-rule="evenodd" d="M2414,1550 C2414,1494 2368,1448 2312,1448 L2109,1448 L2109,1652 L2312,1652 C2368,1652 2414,1606 2414,1550 "/>
</g>

<g fill="none" stroke="#800000" stroke-opacity="1" stroke-width="8" stroke-linecap="round" stroke-linejoin="bevel" transform="matrix(1,0,0,1,0,0)"
font-family="SimSun" font-size="63.5" font-weight="400" font-style="normal" 
>
<polyline fill="none" vector-effect="none" points="2007,1499 2109,1499 " />
</g>

<g fill="none" stroke="#000000" stroke-opacity="1" stroke-width="1" stroke-linecap="square" stroke-linejoin="bevel" transform="matrix(1,0,0,1,0,0)"
font-family="Arial" font-size="41.656" font-weight="400" font-style="normal" 
>
<text fill="#000000" fill-opacity="1" stroke="none" xml:space="preserve" x="2035" y="1491" font-family="Arial" font-size="41.656" font-weight="400" font-style="normal" 
 >1</text>
</g>

<g fill="none" stroke="#800000" stroke-opacity="1" stroke-width="8" stroke-linecap="round" stroke-linejoin="bevel" transform="matrix(1,0,0,1,0,0)"
font-family="SimSun" font-size="63.5" font-weight="400" font-style="normal" 
>
</g>

<g fill="none" stroke="#800000" stroke-opacity="1" stroke-width="8" stroke-linecap="round" stroke-linejoin="bevel" transform="matrix(1,0,0,1,0,0)"
font-family="SimSun" font-size="63.5" font-weight="400" font-style="normal" 
>
<polyline fill="none" vector-effect="none" points="2007,1601 2109,1601 " />
</g>

<g fill="none" stroke="#000000" stroke-opacity="1" stroke-width="1" stroke-linecap="square" stroke-linejoin="bevel" transform="matrix(1,0,0,1,0,0)"
font-family="Arial" font-size="41.656" font-weight="400" font-style="normal" 
>
<text fill="#000000" fill-opacity="1" stroke="none" xml:space="preserve" x="2035" y="1593" font-family="Arial" font-size="41.656" font-weight="400" font-style="normal" 
 >2</text>
</g>

<g fill="none" stroke="#800000" stroke-opacity="1" stroke-width="8" stroke-linecap="round" stroke-linejoin="bevel" transform="matrix(1,0,0,1,0,0)"
font-family="SimSun" font-size="63.5" font-weight="400" font-style="normal" 
>
</g>

<g fill="none" stroke="#800000" stroke-opacity="1" stroke-width="8" stroke-linecap="round" stroke-linejoin="bevel" transform="matrix(1,0,0,1,0,0)"
font-family="SimSun" font-size="63.5" font-weight="400" font-style="normal" 
>
<path vector-effect="none" fill-rule="evenodd" d="M2444,1550 C2444,1558.28 2437.28,1565 2429,1565 C2420.72,1565 2414,1558.28 2414,1550 C2414,1541.72 2420.72,1535 2429,1535 C2437.28,1535 2444,1541.72 2444,1550 "/>
</g>

<g fill="none" stroke="#800000" stroke-opacity="1" stroke-width="8" stroke-linecap="round" stroke-linejoin="bevel" transform="matrix(1,0,0,1,0,0)"
font-family="SimSun" font-size="63.5" font-weight="400" font-style="normal" 
>
<polyline fill="none" vector-effect="none" points="2515,1550 2444,1550 " />
</g>

<g fill="none" stroke="#000000" stroke-opacity="1" stroke-width="1" stroke-linecap="square" stroke-linejoin="bevel" transform="matrix(1,0,0,1,0,0)"
font-family="Arial" font-size="41.656" font-weight="400" font-style="normal" 
>
<text fill="#000000" fill-opacity="1" stroke="none" xml:space="preserve" x="2464" y="1542" font-family="Arial" font-size="41.656" font-weight="400" font-style="normal" 
 >3</text>
</g>

<g fill="none" stroke="#800000" stroke-opacity="1" stroke-width="8" stroke-linecap="round" stroke-linejoin="bevel" transform="matrix(1,0,0,1,0,0)"
font-family="SimSun" font-size="63.5" font-weight="400" font-style="normal" 
>
</g>

<g fill="none" stroke="#000000" stroke-opacity="1" stroke-width="1" stroke-linecap="square" stroke-linejoin="bevel" transform="matrix(1,0,0,1,0,0)"
font-family="Arial" font-size="62.484" font-weight="400" font-style="normal" 
>
<text fill="#000000" fill-opacity="1" stroke="none" xml:space="preserve" x="2105" y="1432" font-family="Arial" font-size="62.484" font-weight="400" font-style="normal" 
 >U1:A</text>
</g>

<g fill="none" stroke="#800000" stroke-opacity="1" stroke-width="8" stroke-linecap="round" stroke-linejoin="bevel" transform="matrix(1,0,0,1,0,0)"
font-family="SimSun" font-size="63.5" font-weight="400" font-style="normal" 
>
</g>

<g fill="none" stroke="#000000" stroke-opacity="1" stroke-width="1" stroke-linecap="square" stroke-linejoin="bevel" transform="matrix(1,0,0,1,0,0)"
font-family="Arial" font-size="41.656" font-weight="400" font-style="normal" 
>
<text fill="#000000" fill-opacity="1" stroke="none" xml:space="preserve" x="2105" y="1696" font-family="Arial" font-size="41.656" font-weight="400" font-style="normal" 
 >74LS00</text>
</g>

<g fill="none" stroke="#800000" stroke-opacity="1" stroke-width="8" stroke-linecap="round" stroke-linejoin="bevel" transform="matrix(1,0,0,1,0,0)"
font-family="SimSun" font-size="63.5" font-weight="400" font-style="normal" 
>
</g>
</g>
</svg>
